<?xml version="1.0" encoding="utf-8"?>
<!-- Generator: Adobe Illustrator 24.0.3, SVG Export Plug-In . SVG Version: 6.00 Build 0)  -->
<svg version="1.1" id="Calque_1" xmlns="http://www.w3.org/2000/svg" xmlns:xlink="http://www.w3.org/1999/xlink" x="0px" y="0px"
	 viewBox="0 0 297.157 197.157" style="enable-background:new 0 0 297.157 197.157;" xml:space="preserve">
<style type="text/css">
	.st0{fill:#FFFFFF;}
</style>
<g>
	<path class="st0" d="M33.276,7.982H20.022V44.77h-5.409V7.982H1.388V3.536h31.889L33.276,7.982L33.276,7.982z"/>
	<path class="st0" d="M43.812,17.838c2.322-2.851,5.343-4.276,9.062-4.276c6.476,0,9.742,3.653,9.799,10.96v20.249h-5.239V24.493
		c-0.019-2.209-0.524-3.842-1.515-4.899c-0.991-1.057-2.535-1.586-4.63-1.586c-1.699,0-3.191,0.453-4.475,1.359
		c-1.284,0.906-2.285,2.096-3.002,3.568V44.77h-5.239V1.27h5.239C43.812,1.27,43.812,17.838,43.812,17.838z"/>
	<path class="st0" d="M83.233,45.337c-4.154,0-7.533-1.364-10.139-4.092c-2.605-2.728-3.908-6.376-3.908-10.946v-0.963
		c0-3.04,0.581-5.753,1.742-8.142c1.161-2.388,2.785-4.257,4.871-5.607s4.347-2.025,6.783-2.025c3.983,0,7.08,1.312,9.289,3.937
		s3.313,6.382,3.313,11.271v2.181H74.426c0.075,3.021,0.958,5.461,2.648,7.321c1.689,1.86,3.837,2.79,6.443,2.79
		c1.85,0,3.417-0.377,4.701-1.133c1.284-0.755,2.407-1.756,3.37-3.002l3.2,2.492C92.22,43.364,88.369,45.337,83.233,45.337z
		 M82.582,17.866c-2.115,0-3.89,0.77-5.324,2.308c-1.435,1.539-2.322,3.696-2.662,6.471h15.35v-0.396
		c-0.151-2.662-0.869-4.725-2.152-6.188C86.509,18.598,84.772,17.866,82.582,17.866z"/>
	<path class="st0" d="M15.566,115.771h-10.4V65.294h10.4V115.771z"/>
	<path class="st0" d="M33.767,78.26l0.312,4.333c2.681-3.351,6.275-5.027,10.782-5.027c3.975,0,6.934,1.167,8.875,3.501
		s2.935,5.824,2.981,10.47v24.233H46.698V91.78c0-2.126-0.462-3.669-1.387-4.628s-2.461-1.439-4.611-1.439
		c-2.82,0-4.935,1.202-6.344,3.605v26.452H24.337V78.26H33.767z"/>
	<path class="st0" d="M73.531,78.26l0.312,4.333c2.681-3.351,6.275-5.027,10.782-5.027c3.975,0,6.934,1.167,8.875,3.501
		s2.935,5.824,2.981,10.47v24.233H86.462V91.78c0-2.126-0.462-3.669-1.387-4.628s-2.461-1.439-4.611-1.439
		c-2.82,0-4.935,1.202-6.344,3.605v26.452H64.101V78.26H73.531z"/>
	<path class="st0" d="M102.513,96.668c0-3.721,0.716-7.038,2.149-9.95c1.433-2.912,3.496-5.166,6.188-6.76
		c2.692-1.595,5.818-2.392,9.377-2.392c5.062,0,9.192,1.549,12.394,4.646c3.201,3.097,4.986,7.304,5.356,12.619l0.069,2.565
		c0,5.755-1.606,10.372-4.819,13.85c-3.213,3.479-7.523,5.218-12.931,5.218s-9.724-1.733-12.949-5.2
		c-3.224-3.467-4.836-8.182-4.836-14.145v-0.451H102.513z M112.532,97.38c0,3.564,0.67,6.291,2.011,8.177
		c1.34,1.887,3.259,2.83,5.755,2.83c2.427,0,4.322-0.932,5.686-2.795c1.363-1.864,2.045-4.843,2.045-8.941
		c0-3.495-0.682-6.203-2.045-8.125c-1.364-1.921-3.282-2.882-5.755-2.882c-2.45,0-4.345,0.955-5.686,2.864
		C113.202,90.418,112.532,93.375,112.532,97.38z"/>
	<path class="st0" d="M154.792,115.771h-10.054v-53.25h10.054V115.771z"/>
	<path class="st0" d="M180.309,116.464c-5.501,0-9.979-1.687-13.435-5.062c-3.455-3.374-5.183-7.87-5.183-13.486v-0.971
		c0-3.767,0.729-7.136,2.184-10.106c1.457-2.969,3.52-5.257,6.188-6.864c2.67-1.606,5.715-2.409,9.136-2.409
		c5.131,0,9.169,1.618,12.116,4.854c2.946,3.236,4.42,7.824,4.42,13.763v4.091H171.85c0.323,2.45,1.3,4.415,2.929,5.894
		c1.63,1.479,3.692,2.219,6.188,2.219c3.859,0,6.876-1.398,9.049-4.195l4.922,5.512c-1.502,2.126-3.535,3.785-6.102,4.975
		C186.271,115.869,183.428,116.464,180.309,116.464z M179.164,85.644c-1.988,0-3.6,0.673-4.836,2.02
		c-1.237,1.347-2.028,3.273-2.375,5.78h13.937v-0.801c-0.047-2.229-0.647-3.952-1.803-5.171
		C182.931,86.253,181.29,85.644,179.164,85.644z"/>
	<path class="st0" d="M199.965,96.738c0-5.755,1.369-10.389,4.107-13.902c2.739-3.513,6.432-5.27,11.076-5.27
		c4.114,0,7.315,1.41,9.604,4.229l0.416-3.536h9.083v36.263c0,3.282-0.745,6.136-2.236,8.563c-1.49,2.427-3.588,4.276-6.292,5.546
		c-2.704,1.271-5.871,1.907-9.499,1.907c-2.751,0-5.432-0.549-8.043-1.646c-2.612-1.099-4.588-2.514-5.929-4.247l4.438-6.102
		c2.496,2.796,5.524,4.195,9.084,4.195c2.657,0,4.726-0.71,6.205-2.132c1.479-1.421,2.219-3.438,2.219-6.049v-2.011
		c-2.312,2.612-5.351,3.917-9.117,3.917c-4.508,0-8.153-1.762-10.938-5.287c-2.785-3.524-4.177-8.199-4.177-14.023v-0.415H199.965z
		 M209.983,97.484c0,3.403,0.682,6.07,2.046,8.003c1.363,1.933,3.235,2.899,5.615,2.899c3.051,0,5.235-1.146,6.553-3.438V89.151
		c-1.341-2.292-3.502-3.438-6.482-3.438c-2.404,0-4.294,0.984-5.669,2.952S209.983,93.572,209.983,97.484z"/>
	<path class="st0" d="M263.685,115.771c-0.463-0.901-0.798-2.022-1.005-3.363c-2.428,2.704-5.582,4.056-9.465,4.056
		c-3.675,0-6.72-1.063-9.135-3.189c-2.416-2.126-3.623-4.807-3.623-8.043c0-3.975,1.474-7.026,4.42-9.152
		c2.947-2.126,7.205-3.201,12.775-3.224h4.611v-2.149c0-1.733-0.445-3.12-1.335-4.16c-0.891-1.04-2.294-1.56-4.212-1.56
		c-1.688,0-3.011,0.405-3.97,1.213c-0.96,0.809-1.438,1.918-1.438,3.328h-10.02c0-2.172,0.67-4.183,2.011-6.032
		c1.34-1.849,3.235-3.299,5.686-4.351c2.449-1.051,5.2-1.577,8.251-1.577c4.622,0,8.291,1.161,11.007,3.484
		c2.716,2.322,4.073,5.587,4.073,9.793v16.259c0.023,3.56,0.521,6.252,1.491,8.078v0.589H263.685z M255.398,108.802
		c1.479,0,2.844-0.33,4.092-0.988c1.248-0.659,2.172-1.543,2.773-2.652v-6.448h-3.744c-5.016,0-7.686,1.733-8.009,5.2l-0.034,0.589
		c0,1.248,0.438,2.277,1.316,3.085C252.672,108.398,253.873,108.802,255.398,108.802z"/>
	<path class="st0" d="M290.587,115.771h-10.054v-53.25h10.054V115.771z"/>
	<path class="st0" d="M27.527,168.561H10.224v18.21H4.786v-41.234h25.545v4.446H10.224v14.132h17.304L27.527,168.561L27.527,168.561
		z"/>
	<path class="st0" d="M36.052,148c0-0.85,0.259-1.567,0.779-2.152c0.519-0.585,1.289-0.878,2.308-0.878s1.793,0.293,2.322,0.878
		c0.528,0.585,0.793,1.303,0.793,2.152s-0.265,1.558-0.793,2.124c-0.529,0.566-1.303,0.85-2.322,0.85s-1.789-0.283-2.308-0.85
		C36.311,149.558,36.052,148.85,36.052,148z M41.716,186.771h-5.239v-30.643h5.239V186.771z"/>
	<path class="st0" d="M64.91,160.829c-0.793-0.132-1.652-0.198-2.577-0.198c-3.437,0-5.768,1.463-6.995,4.39v21.75h-5.239v-30.643
		h5.098l0.085,3.54c1.718-2.737,4.153-4.106,7.307-4.106c1.02,0,1.793,0.132,2.322,0.396L64.91,160.829L64.91,160.829z"/>
	<path class="st0" d="M74.652,156.128l0.142,3.398c2.247-2.644,5.277-3.965,9.091-3.965c4.286,0,7.203,1.643,8.751,4.928
		c1.02-1.473,2.346-2.662,3.979-3.568c1.633-0.906,3.563-1.359,5.792-1.359c6.721,0,10.139,3.559,10.252,10.677v20.532h-5.239
		V166.55c0-2.19-0.5-3.828-1.501-4.914c-1.001-1.085-2.681-1.628-5.041-1.628c-1.945,0-3.559,0.581-4.843,1.741
		c-1.284,1.162-2.03,2.724-2.237,4.688v20.334H88.53v-20.079c0-4.456-2.181-6.684-6.542-6.684c-3.437,0-5.787,1.463-7.052,4.39
		v22.373h-5.239v-30.643L74.652,156.128L74.652,156.128z"/>
	<path class="st0" d="M120.673,184.023c0-0.906,0.269-1.661,0.807-2.266s1.345-0.906,2.421-0.906s1.893,0.302,2.45,0.906
		s0.835,1.359,0.835,2.266c0,0.868-0.279,1.596-0.835,2.181c-0.557,0.585-1.374,0.878-2.45,0.878s-1.883-0.293-2.421-0.878
		S120.673,184.892,120.673,184.023z"/>
</g>
</svg>
