<?xml version="1.0" encoding="utf-8"?>
<!-- Generator: Adobe Illustrator 25.2.1, SVG Export Plug-In . SVG Version: 6.00 Build 0)  -->
<svg version="1.1" id="Calque_1" xmlns="http://www.w3.org/2000/svg" xmlns:xlink="http://www.w3.org/1999/xlink" x="0px" y="0px"
	 width="5000px" height="2668.721px" viewBox="0 0 5000 2668.721" style="enable-background:new 0 0 5000 2668.721;"
	 xml:space="preserve">
<style type="text/css">
	.st0{fill:#B09E80;}
	.st1{fill:#B09E80;fill-opacity:0.98;}
	.st2{fill:#E9E9E9;}
	.st3{fill:#E9E9E9;fill-opacity:0.99;}
</style>
<g>
	<g transform="rotate(0 355.0231 407.6555)">
		<g transform="matrix(1 0 0 1 0 0)">
			<path id="id-6izo4zJp5" class="st0" d="M2058.86,2648.479c-6.362,5.012-16.339,9.639-29.93,13.88s-26.171,6.362-37.738,6.362l0,0
				c-21.785,0-40.967-4.482-57.546-13.447c-16.579-8.965-29.351-21.255-38.316-36.87c-8.964-15.615-13.447-33.159-13.447-52.63l0,0
				c0-22.749,4.82-42.461,14.459-59.136c9.639-16.676,22.652-29.448,39.039-38.316c16.387-8.868,34.316-13.302,53.787-13.302l0,0
				c11.76,0,22.845,1.398,33.255,4.193c10.41,2.795,19.76,6.507,28.05,11.133l0,0l-9.254,25.737
				c-6.169-3.47-13.929-6.507-23.279-9.109s-17.784-3.904-25.303-3.904l0,0c-16.194,0-30.508,3.277-42.943,9.832
				c-12.435,6.555-22.026,15.905-28.773,28.05c-6.748,12.146-10.121,26.315-10.121,42.509l0,0c0,15.037,3.374,28.436,10.121,40.195
				c6.747,11.76,16.29,20.869,28.629,27.327c12.338,6.458,26.412,9.688,42.22,9.688l0,0c7.326,0,14.459-0.723,21.399-2.169
				c6.94-1.446,12.724-3.518,17.351-6.217l0,0v-41.352h-41.642v-26.894h69.981V2648.479z M2317.963,2666.407h-32.677l-49.16-77.21
				c-1.542,0.193-3.856,0.289-6.94,0.289l0,0h-30.942v76.921h-28.05v-209.075h55.811c14.266,0,26.99,2.506,38.171,7.519
				c11.182,5.012,19.953,12.386,26.315,22.122c6.362,9.736,9.543,21.447,9.543,35.135l0,0c0,12.917-2.844,24.773-8.531,35.569
				c-5.687,10.796-14.411,18.989-26.17,24.58l0,0L2317.963,2666.407z M2228.607,2562.304c15.037,0,25.881-3.952,32.532-11.856
				c6.651-7.904,9.977-16.965,9.977-27.183l0,0c0-6.169-1.398-12.242-4.193-18.218c-2.795-5.976-7.229-10.94-13.302-14.893
				c-6.073-3.952-13.736-5.928-22.99-5.928l0,0h-32.388v78.078H2228.607z M2401.246,2562.015c0-19.086,4.82-36.822,14.459-53.208
				c9.639-16.386,22.604-29.448,38.894-39.183c16.291-9.736,34.075-14.603,53.353-14.603l0,0c19.086,0,36.822,4.868,53.209,14.603
				s29.448,22.797,39.184,39.183c9.736,16.387,14.604,34.123,14.604,53.208l0,0c0,19.279-4.82,37.111-14.459,53.498
				c-9.639,16.387-22.7,29.352-39.184,38.894c-16.483,9.543-34.268,14.314-53.353,14.314l0,0c-19.278,0-37.111-4.723-53.498-14.17
				c-16.387-9.446-29.352-22.315-38.894-38.605C2406.017,2599.656,2401.246,2581.679,2401.246,2562.015L2401.246,2562.015z
				 M2430.164,2562.304c0,14.266,3.47,27.472,10.41,39.617c6.94,12.145,16.435,21.784,28.484,28.917s25.207,10.699,39.473,10.699
				l0,0c14.266,0,27.327-3.518,39.184-10.555s21.206-16.676,28.05-28.917c6.844-12.242,10.266-25.592,10.266-40.051l0,0
				c0-14.459-3.47-27.857-10.41-40.196c-6.94-12.338-16.387-22.074-28.34-29.207c-11.953-7.133-25.062-10.699-39.328-10.699l0,0
				c-14.266,0-27.375,3.615-39.328,10.844c-11.953,7.229-21.351,17.013-28.195,29.351
				C2433.586,2534.447,2430.164,2547.845,2430.164,2562.304L2430.164,2562.304z M2745.367,2592.378
				c0,9.254,2.217,17.592,6.651,25.014c4.434,7.422,10.459,13.302,18.074,17.64s16.049,6.506,25.303,6.506l0,0
				c9.639,0,18.363-2.121,26.17-6.362c7.808-4.241,13.929-10.121,18.363-17.64c4.434-7.519,6.651-15.905,6.651-25.158l0,0v-135.045
				h27.472v135.913c0,14.844-3.47,28.002-10.41,39.472c-6.94,11.471-16.387,20.339-28.339,26.604
				c-11.953,6.266-25.255,9.398-39.906,9.398l0,0c-14.459,0-27.665-3.133-39.617-9.398c-11.953-6.265-21.351-15.134-28.195-26.604
				c-6.844-11.471-10.266-24.628-10.266-39.472l0,0v-135.913h28.05V2592.378z M3045.534,2457.333
				c22.749,0,40.533,5.687,53.353,17.062c12.82,11.374,19.23,27.279,19.23,47.714l0,0c0,11.76-2.362,22.749-7.085,32.966
				c-4.723,10.218-12.338,18.507-22.845,24.869s-23.761,9.543-39.762,9.543l0,0h-30.942v76.921h-28.05v-209.075H3045.534z
				 M3048.425,2562.304c10.025,0,18.17-2.121,24.436-6.362c6.266-4.241,10.748-9.398,13.447-15.471
				c2.699-6.073,4.049-12.001,4.049-17.784l0,0c0-10.025-3.277-18.941-9.832-26.749c-6.555-7.808-16.772-11.712-30.653-11.712l0,0
				h-32.388v78.078H3048.425z"/>
		</g>
	</g>
	<g transform="rotate(0 387.4989 221.074)">
		<g transform="matrix(1 0 0 1 0 0)">
			<g>
				<path class="st1" d="M2500,381.609c-105.21,0-190.804-85.594-190.804-190.805h63.35c0,70.28,57.175,127.455,127.455,127.455
					c70.28,0,127.455-57.175,127.455-127.455S2570.28,63.35,2500,63.35V0c105.21,0,190.805,85.594,190.805,190.805
					S2605.211,381.609,2500,381.609z"/>
				<path class="st2" d="M2567.72,190.804c0,37.4-30.317,67.72-67.72,67.72c-37.4,0-67.72-30.317-67.72-67.72
					c0-37.4,30.317-67.72,67.72-67.72C2537.401,123.085,2567.72,153.401,2567.72,190.804z"/>
			</g>
		</g>
	</g>
	<g transform="rotate(0 212 239.4419)">
		<rect x="0" y="241.683" class="st1" width="2118.391" height="25.441"/>
	</g>
	<g transform="rotate(0 431.0023 239.4419)">
		<rect x="2881.609" y="241.683" class="st1" width="2118.391" height="25.441"/>
	</g>
	<g transform="rotate(0 212 264.5773)">
		<g transform="matrix(1 0 0 1 0 0)">
			<path id="id-D6z1nYkh4" class="st3" d="M1509.787,2048.872L1509.787,2048.872h16.66v20.824h-468.555v-20.824h18.742
				c29.155,0,51.02-9.371,65.598-28.113c14.577-18.742,21.866-36.443,21.866-53.103s-2.777-33.319-8.33-49.979l0,0L1022.49,1563.66
				H460.225L320.7,1919.76c-5.553,16.66-8.33,32.972-8.33,48.938s7.289,33.319,21.866,52.061
				c14.577,18.742,36.443,28.113,65.598,28.113l0,0h18.742v20.824H0v-20.824h18.742c34.708,0,68.721-11.106,102.041-33.319
				s60.392-54.838,81.216-97.875l0,0L672.636,797.317c51.367-112.453,77.051-183.95,77.051-214.493l0,0h18.742l558.101,1334.854
				c19.436,43.037,45.814,75.662,79.134,97.875C1438.984,2037.766,1473.691,2048.872,1509.787,2048.872z M747.605,832.719
				l-262.391,668.468h512.287L747.605,832.719z M3481.883,2048.872L3481.883,2048.872h33.319v20.824h-451.895v-18.742h31.237
				c23.601,0,43.732-9.371,60.391-28.113s23.601-39.22,20.824-61.432l0,0l-93.711-1047.475l-437.318,972.506
				c-38.873,84.686-62.474,155.49-70.804,212.41l0,0h-20.825L2019.992,943.089l-89.546,1018.32
				c-2.777,22.213,4.165,42.69,20.825,61.432c16.66,18.742,36.096,28.113,58.309,28.113l0,0h33.319v18.742H1638.9v-20.824h33.319
				c38.873,0,72.539-11.801,101-35.402c28.46-23.601,45.467-55.532,51.02-95.793l0,0l156.185-1334.854h20.825l581.008,1255.72
				l568.513-1255.72h18.742l160.35,1334.854c6.941,55.532,34.707,94.405,83.299,116.617l0,0
				C3433.986,2044.013,3456.893,2048.872,3481.883,2048.872z M4835.485,832.719v-35.402c0-33.319-11.801-62.127-35.402-86.422
				c-23.602-24.295-51.368-37.137-83.299-38.525l0,0h-395.668v1247.39c1.389,36.096,14.925,66.639,40.608,91.628
				s56.574,37.484,92.67,37.484l0,0h27.072v20.824h-456.06v-20.824h27.072c36.096,0,66.986-12.495,92.67-37.484
				c25.684-24.99,39.22-54.838,40.608-89.546l0,0V672.37h-395.668c-33.319,1.388-61.433,14.23-84.34,38.525
				c-22.907,24.295-34.36,53.103-34.36,86.422l0,0v35.402l-20.825,2.083V572.412c20.825,8.33,56.92,16.66,108.288,24.989
				c51.367,8.33,98.57,12.495,141.607,12.495l0,0h703.874c68.027,0,124.6-5.206,169.721-15.618
				c45.12-10.412,72.539-17.701,82.257-21.866l0,0v262.389L4835.485,832.719z"/>
		</g>
	</g>
</g>
</svg>
