<?xml version="1.0" encoding="utf-8"?>
<!-- Generator: Adobe Illustrator 24.0.2, SVG Export Plug-In . SVG Version: 6.00 Build 0)  -->
<svg version="1.1" id="Calque_1" xmlns="http://www.w3.org/2000/svg" xmlns:xlink="http://www.w3.org/1999/xlink" x="0px" y="0px"
	 viewBox="0 0 340.157 340.157" style="enable-background:new 0 0 340.157 340.157;" xml:space="preserve">
<style type="text/css">
	.st0{fill:#C5E6F1;}
	.st1{fill:#152D4A;}
	.st2{fill:#88CDD3;}
	.st3{fill:#19B7CD;}
	.st4{fill:#00ABBE;}
	.st5{fill:#0091AB;}
	.st6{fill:#FDC309;}
	.st7{fill:#F59B1A;}
	.st8{fill:#55BEC3;}
	.st9{fill:url(#SVGID_1_);}
	.st10{fill:url(#SVGID_2_);}
	.st11{fill:url(#SVGID_3_);}
	.st12{fill:url(#SVGID_4_);}
	.st13{fill:url(#SVGID_5_);}
	.st14{fill:url(#SVGID_6_);}
	.st15{fill:url(#SVGID_7_);}
	.st16{clip-path:url(#SVGID_9_);}
	.st17{clip-path:url(#SVGID_13_);fill:url(#SVGID_14_);}
	.st18{fill:url(#SVGID_15_);}
</style>
<g>
</g>
<g>
	<polyline class="st0" points="340.35,170.415 170.271,170.415 170.271,340.493 340.35,170.415 	"/>
	<polyline class="st1" points="231.495,170.415 170.271,170.415 170.271,231.64 231.495,170.415 	"/>
	<polyline class="st2" points="340.35,170.415 170.271,170.415 170.271,0.336 340.35,170.415 	"/>
	<polyline class="st3" points="230.465,170.415 170.271,170.415 170.271,110.221 230.465,170.415 	"/>
	<polyline class="st4" points="0.192,340.493 170.271,340.493 170.271,170.415 0.192,340.493 	"/>
	<polyline class="st5" points="65.084,340.493 170.271,340.493 170.271,235.307 65.084,340.493 	"/>
	<polygon class="st6" points="0.192,0.336 170.271,0.336 170.271,170.415 	"/>
	<polygon class="st7" points="60.345,0.336 170.271,0.336 170.271,110.262 	"/>
	<polygon class="st2" points="0.192,0.336 170.271,0.336 170.271,170.415 	"/>
	<polygon class="st8" points="60.345,0.336 170.271,0.336 170.271,110.262 	"/>
	
		<linearGradient id="SVGID_1_" gradientUnits="userSpaceOnUse" x1="-5.551028e-07" y1="3.330613e-06" x2="1" y2="3.330613e-06" gradientTransform="matrix(-1.683171e-15 27.4883 27.4883 1.683171e-15 271.3202 142.9263)">
		<stop  offset="0" style="stop-color:#88CDD4"/>
		<stop  offset="0.2941" style="stop-color:#86CAD0"/>
		<stop  offset="0.53" style="stop-color:#7FC1C6"/>
		<stop  offset="0.7458" style="stop-color:#72B1B4"/>
		<stop  offset="0.9484" style="stop-color:#629D9D"/>
		<stop  offset="1" style="stop-color:#5D9797"/>
	</linearGradient>
	<polyline class="st9" points="312.861,142.926 202.977,142.926 230.465,170.415 339.664,170.415 312.861,142.926 	"/>
	
		<linearGradient id="SVGID_2_" gradientUnits="userSpaceOnUse" x1="-5.551028e-07" y1="-5.551010e-07" x2="1" y2="-5.551010e-07" gradientTransform="matrix(-1.683171e-15 27.4883 27.4883 1.683171e-15 216.3277 142.9263)">
		<stop  offset="0" style="stop-color:#19B7CD"/>
		<stop  offset="0.2944" style="stop-color:#18B5CA"/>
		<stop  offset="0.5302" style="stop-color:#16ADC0"/>
		<stop  offset="0.7458" style="stop-color:#14A1AF"/>
		<stop  offset="0.9481" style="stop-color:#13909A"/>
		<stop  offset="1" style="stop-color:#138C93"/>
	</linearGradient>
	<polyline class="st10" points="202.977,142.926 202.19,142.926 202.19,170.415 230.465,170.415 202.977,142.926 	"/>
	
		<linearGradient id="SVGID_3_" gradientUnits="userSpaceOnUse" x1="0" y1="4.541385e-06" x2="1" y2="4.541385e-06" gradientTransform="matrix(-31.9194 0 0 31.9194 202.1902 32.2159)">
		<stop  offset="0" style="stop-color:#FFFFFF"/>
		<stop  offset="0.2657" style="stop-color:#FCFCFC"/>
		<stop  offset="0.4773" style="stop-color:#F2F2F2"/>
		<stop  offset="0.6702" style="stop-color:#E2E1E1"/>
		<stop  offset="0.851" style="stop-color:#CCCACA"/>
		<stop  offset="1" style="stop-color:#B4B3B2"/>
	</linearGradient>
	<polyline class="st11" points="202.11,32.176 202.19,32.256 202.19,32.255 202.11,32.176 	"/>
	
		<linearGradient id="SVGID_4_" gradientUnits="userSpaceOnUse" x1="-9.094947e-13" y1="3.824267e-06" x2="1" y2="3.824267e-06" gradientTransform="matrix(-31.9199 0 0 31.9199 202.1904 270.1063)">
		<stop  offset="0" style="stop-color:#C5E6F1"/>
		<stop  offset="0.2937" style="stop-color:#C2E2ED"/>
		<stop  offset="0.5298" style="stop-color:#B7D7E0"/>
		<stop  offset="0.7459" style="stop-color:#A6C4CC"/>
		<stop  offset="0.9488" style="stop-color:#90ABB1"/>
		<stop  offset="1" style="stop-color:#89A4A9"/>
	</linearGradient>
	<polyline class="st12" points="202.19,199.72 170.271,231.64 170.271,304.248 170.271,340.493 202.19,308.573 202.19,199.72 	"/>
	
		<linearGradient id="SVGID_5_" gradientUnits="userSpaceOnUse" x1="-9.094947e-13" y1="4.780331e-07" x2="1" y2="4.780331e-07" gradientTransform="matrix(-31.9199 0 0 31.9199 202.1904 201.0271)">
		<stop  offset="0" style="stop-color:#152D4A"/>
		<stop  offset="0.3662" style="stop-color:#152D48"/>
		<stop  offset="0.653" style="stop-color:#162B44"/>
		<stop  offset="0.912" style="stop-color:#18293D"/>
		<stop  offset="1" style="stop-color:#19283A"/>
	</linearGradient>
	<polyline class="st13" points="202.19,170.415 170.271,170.415 170.271,231.64 202.19,199.72 202.19,170.415 	"/>
	
		<linearGradient id="SVGID_6_" gradientUnits="userSpaceOnUse" x1="-9.094947e-13" y1="-3.824267e-06" x2="1" y2="-3.824267e-06" gradientTransform="matrix(-31.9199 0 0 31.9199 202.1904 71.3212)">
		<stop  offset="0" style="stop-color:#88CDD4"/>
		<stop  offset="0.2941" style="stop-color:#86CAD0"/>
		<stop  offset="0.53" style="stop-color:#7FC1C6"/>
		<stop  offset="0.7458" style="stop-color:#72B1B4"/>
		<stop  offset="0.9484" style="stop-color:#629D9D"/>
		<stop  offset="1" style="stop-color:#5D9797"/>
	</linearGradient>
	<polyline class="st14" points="170.271,0.502 170.271,110.221 202.19,142.14 202.19,32.255 202.11,32.176 170.271,0.502 	"/>
	
		<linearGradient id="SVGID_7_" gradientUnits="userSpaceOnUse" x1="-9.094947e-13" y1="0" x2="1" y2="0" gradientTransform="matrix(-31.9199 0 0 31.9199 202.1904 140.3176)">
		<stop  offset="0" style="stop-color:#19B7CD"/>
		<stop  offset="0.2944" style="stop-color:#18B5CA"/>
		<stop  offset="0.5302" style="stop-color:#16ADC0"/>
		<stop  offset="0.7458" style="stop-color:#14A1AF"/>
		<stop  offset="0.9481" style="stop-color:#13909A"/>
		<stop  offset="1" style="stop-color:#138C93"/>
	</linearGradient>
	<polyline class="st15" points="170.271,110.221 170.271,170.415 202.19,170.415 170.396,170.415 170.396,142.926 202.19,142.926 
		202.19,142.14 170.271,110.221 	"/>
	<g>
		<defs>
			<polyline id="SVGID_8_" points="202.19,142.926 170.396,142.926 170.396,170.415 202.19,170.415 202.19,142.926 			"/>
		</defs>
		<clipPath id="SVGID_9_">
			<use xlink:href="#SVGID_8_"  style="overflow:visible;"/>
		</clipPath>
		<g class="st16">
			<defs>
				<rect id="SVGID_10_" x="169.92" y="142.56" width="32.64" height="28.32"/>
			</defs>
			<clipPath id="SVGID_11_">
				<use xlink:href="#SVGID_10_"  style="overflow:visible;"/>
			</clipPath>
			<g style="clip-path:url(#SVGID_11_);">
				
					<image style="overflow:visible;" width="136" height="118" xlink:href="666863F34E0B784E.jpg"  transform="matrix(0.24 0 0 -0.24 169.92 170.88)">
				</image>
			</g>
		</g>
	</g>
	<g>
		<defs>
			<polyline id="SVGID_12_" points="101.329,304.248 36.497,304.248 0.192,340.493 65.084,340.493 101.329,304.248 			"/>
		</defs>
		<clipPath id="SVGID_13_">
			<use xlink:href="#SVGID_12_"  style="overflow:visible;"/>
		</clipPath>
		
			<linearGradient id="SVGID_14_" gradientUnits="userSpaceOnUse" x1="-1.683957e-06" y1="0.951" x2="1" y2="0.951" gradientTransform="matrix(-2.219371e-15 36.2451 -36.2451 -2.219371e-15 85.2313 304.2481)">
			<stop  offset="0" style="stop-color:#00AABD"/>
			<stop  offset="0.3011" style="stop-color:#00A8BA"/>
			<stop  offset="0.5472" style="stop-color:#00A1B0"/>
			<stop  offset="0.7736" style="stop-color:#0495A0"/>
			<stop  offset="0.9874" style="stop-color:#10858B"/>
			<stop  offset="1" style="stop-color:#118389"/>
		</linearGradient>
		<rect x="0.192" y="304.248" class="st17" width="101.137" height="36.245"/>
	</g>
	
		<linearGradient id="SVGID_15_" gradientUnits="userSpaceOnUse" x1="-1.683957e-06" y1="-0.8952" x2="1" y2="-0.8952" gradientTransform="matrix(-2.219371e-15 36.2451 -36.2451 -2.219371e-15 85.2313 304.2481)">
		<stop  offset="0" style="stop-color:#0191AB"/>
		<stop  offset="0.3221" style="stop-color:#038FA7"/>
		<stop  offset="0.5884" style="stop-color:#0B879D"/>
		<stop  offset="0.8338" style="stop-color:#137C8C"/>
		<stop  offset="1" style="stop-color:#19717D"/>
	</linearGradient>
	<polyline class="st18" points="170.271,304.248 101.329,304.248 65.084,340.493 170.271,340.493 170.271,304.248 	"/>
</g>
</svg>
