<?xml version="1.0" encoding="utf-8"?>
<!-- Generator: Adobe Illustrator 23.1.1, SVG Export Plug-In . SVG Version: 6.00 Build 0)  -->
<svg version="1.1" id="Calque_1" xmlns="http://www.w3.org/2000/svg" xmlns:xlink="http://www.w3.org/1999/xlink" x="0px" y="0px"
	 viewBox="0 0 114.91 31.08" style="enable-background:new 0 0 114.91 31.08;" xml:space="preserve">
<style type="text/css">
	.st0{fill:#FFFFFF;}
	.st1{fill:url(#SVGID_1_);}
	.st2{fill:url(#SVGID_2_);}
	.st3{fill:url(#SVGID_3_);}
	.st4{fill:url(#SVGID_4_);}
	.st5{fill:#FFFFFF;stroke:#FFFFFF;stroke-width:0.5;stroke-miterlimit:10;}
</style>
<g>
	<g>
		<path class="st0" d="M18.34,17.21V7.09c0-0.44,0.31-0.65,0.58-0.65c0.31,0,0.58,0.2,0.58,0.65v20.45c0,0.38-0.27,0.58-0.58,0.58
			c-0.27,0-0.58-0.2-0.58-0.58v-9.31L3.54,18.2v9.34c0,0.38-0.27,0.58-0.54,0.58c-0.31,0-0.58-0.2-0.58-0.58V7.09
			c0-0.44,0.27-0.65,0.58-0.65c0.27,0,0.54,0.2,0.54,0.65v10.12H18.34z"/>
		<path class="st0" d="M42.98,27.03c0.72,0,0.72,1.09,0,1.09H27.71c-0.55,0-0.92-0.41-0.92-0.92V7.32c0-0.48,0.38-0.89,0.92-0.89
			h15.31c0.68,0,0.68,1.02-0.03,1.02H27.91v9.41H42.3c0.72,0,0.72,1.02,0,1.02H27.91v9.14H42.98z"/>
		<path class="st0" d="M50.31,27.47V7.09c0-0.44,0.31-0.65,0.58-0.65c0.31,0,0.58,0.2,0.58,0.65v19.98h14.32
			c0.78,0,0.75,1.06,0,1.06H50.92C50.48,28.12,50.31,27.88,50.31,27.47z"/>
		<path class="st0" d="M111.39,6.8c0.14-0.17,0.31-0.24,0.47-0.24c0.41,0,0.75,0.47,0.37,0.95l-8.44,9.59l8.81,10.03
			c0.37,0.51,0.1,0.98-0.31,0.98c-0.17,0-0.37-0.07-0.54-0.27l-8.64-10l-8.64,10c-0.17,0.2-0.37,0.27-0.54,0.27
			c-0.41,0-0.75-0.47-0.3-0.98l8.74-10.03L94,7.48c-0.41-0.44-0.07-0.92,0.34-0.92c0.13,0,0.34,0.07,0.47,0.24l8.3,9.56L111.39,6.8z
			"/>
	</g>
</g>
<g>
	<linearGradient id="SVGID_1_" gradientUnits="userSpaceOnUse" x1="78.5121" y1="6.2515" x2="78.5121" y2="28.0543">
		<stop  offset="0" style="stop-color:#F8AD4A"/>
		<stop  offset="0.6081" style="stop-color:#E94266"/>
		<stop  offset="1" style="stop-color:#E83F63"/>
	</linearGradient>
	<path class="st1" d="M88.15,14.09l-6.57-6.57c-1.69-1.69-4.44-1.69-6.13,0l-6.57,6.57c-1.69,1.69-1.69,4.44,0,6.13l6.57,6.57
		c1.69,1.69,4.44,1.69,6.13,0l6.57-6.57C89.83,18.53,89.83,15.77,88.15,14.09z"/>
	<linearGradient id="SVGID_2_" gradientUnits="userSpaceOnUse" x1="85.2168" y1="6.0806" x2="85.2168" y2="28.3679">
		<stop  offset="0" style="stop-color:#F8AD4A"/>
		<stop  offset="0.6081" style="stop-color:#E94266"/>
		<stop  offset="1" style="stop-color:#E83F63"/>
	</linearGradient>
	<circle class="st2" cx="85.22" cy="9.71" r="1.75"/>
	<linearGradient id="SVGID_3_" gradientUnits="userSpaceOnUse" x1="82.8589" y1="5.6405" x2="97.3758" y2="5.6405">
		<stop  offset="0" style="stop-color:#F8AD4A"/>
		<stop  offset="0.2704" style="stop-color:#E94266"/>
		<stop  offset="0.7524" style="stop-color:#E83F63"/>
	</linearGradient>
	<circle class="st3" cx="85.22" cy="5.64" r="1.14"/>
	<linearGradient id="SVGID_4_" gradientUnits="userSpaceOnUse" x1="87.004" y1="3.6504" x2="88.3666" y2="3.6504">
		<stop  offset="0" style="stop-color:#EC6564"/>
		<stop  offset="1" style="stop-color:#E83F63"/>
	</linearGradient>
	<circle class="st4" cx="87.69" cy="3.65" r="0.68"/>
	<g>
		<path class="st5" d="M78.66,10.97c-0.09-0.06-0.21-0.06-0.3,0c-0.07,0.05-0.11,0.14-0.11,0.24c0,0.05,0.01,0.11,0.03,0.17
			c0.17,0.51,0.18,1.03,0.19,1.05v0.26c-0.59,0.01-1.16,0.12-1.69,0.35c-0.52,0.22-0.99,0.53-1.39,0.93l-0.19-0.19
			c-0.01-0.01-0.37-0.39-0.61-0.87c-0.08-0.17-0.21-0.25-0.34-0.23c-0.11,0.02-0.19,0.1-0.21,0.21c0,0.01,0,0.03,0,0.04
			c0,0.12,0.08,0.23,0.23,0.31c0.48,0.25,0.87,0.6,0.87,0.61l0.19,0.19c-0.4,0.4-0.71,0.87-0.93,1.39
			c-0.23,0.54-0.34,1.11-0.35,1.69h-0.26c-0.02,0-0.54-0.02-1.05-0.19c-0.18-0.06-0.33-0.03-0.41,0.08
			c-0.03,0.04-0.05,0.1-0.05,0.15c0,0.05,0.02,0.1,0.05,0.15c0.08,0.11,0.23,0.14,0.41,0.08c0.51-0.17,1.03-0.19,1.05-0.19h0.26
			c0.01,0.59,0.12,1.16,0.35,1.69c0.22,0.52,0.53,0.99,0.93,1.39l-0.19,0.19c-0.01,0.01-0.39,0.37-0.87,0.61
			c-0.15,0.08-0.23,0.19-0.23,0.31c0,0.01,0,0.03,0,0.04c0.02,0.11,0.1,0.19,0.21,0.21c0.13,0.02,0.26-0.07,0.34-0.23
			c0.25-0.48,0.6-0.86,0.61-0.87l0.19-0.19c0.4,0.4,0.87,0.71,1.39,0.93c0.54,0.23,1.11,0.34,1.69,0.35v0.26
			c0,0.02-0.02,0.54-0.19,1.05c-0.02,0.06-0.03,0.12-0.03,0.17c0,0.1,0.04,0.19,0.11,0.24c0.09,0.06,0.21,0.06,0.3,0
			c0.11-0.08,0.14-0.23,0.08-0.41c-0.17-0.51-0.18-1.03-0.19-1.05v-0.26c0.59-0.01,1.16-0.12,1.69-0.35
			c0.52-0.22,0.99-0.53,1.39-0.93l0.19,0.19c0.01,0.01,0.37,0.39,0.61,0.87c0.08,0.17,0.21,0.25,0.34,0.23
			c0.11-0.02,0.19-0.1,0.21-0.21c0.02-0.13-0.07-0.26-0.23-0.34v0c-0.48-0.25-0.86-0.6-0.87-0.61l-0.19-0.19
			c0.4-0.4,0.71-0.87,0.93-1.39c0.23-0.54,0.34-1.11,0.35-1.69h0.26c0.02,0,0.54,0.02,1.05,0.19c0.18,0.06,0.33,0.03,0.41-0.08
			c0.06-0.09,0.06-0.21,0-0.3c-0.08-0.11-0.23-0.14-0.41-0.08c-0.51,0.17-1.03,0.19-1.05,0.19h-0.26c-0.01-0.59-0.12-1.16-0.35-1.69
			c-0.22-0.52-0.53-0.99-0.93-1.39l0.19-0.19c0.01-0.01,0.39-0.36,0.87-0.61c0.17-0.08,0.25-0.21,0.23-0.34
			c-0.02-0.11-0.1-0.19-0.21-0.21c-0.13-0.02-0.26,0.07-0.34,0.23c-0.24,0.48-0.6,0.86-0.61,0.87l-0.19,0.19
			c-0.4-0.4-0.87-0.71-1.39-0.93c-0.54-0.23-1.11-0.34-1.69-0.35v-0.26c0-0.02,0.02-0.54,0.19-1.05v0
			C78.8,11.2,78.77,11.05,78.66,10.97z M82.16,13.5c0.04-0.06,0.09-0.12,0.14-0.19c0.07-0.11,0.15-0.23,0.21-0.36
			c0.07-0.13,0.16-0.2,0.25-0.18c0.07,0.01,0.13,0.07,0.14,0.14c0.01,0.09-0.05,0.19-0.18,0.25c-0.13,0.07-0.25,0.14-0.36,0.21
			C82.29,13.41,82.22,13.46,82.16,13.5z M82.3,21c-0.05-0.07-0.09-0.13-0.14-0.19c0.06,0.04,0.12,0.09,0.19,0.14
			c0.11,0.07,0.23,0.15,0.36,0.21c0.12,0.06,0.19,0.14,0.19,0.23c0,0.01,0,0.02,0,0.03c-0.01,0.07-0.07,0.13-0.14,0.14
			c-0.09,0.01-0.19-0.05-0.25-0.18C82.44,21.23,82.37,21.11,82.3,21z M74.86,20.8c-0.04,0.06-0.09,0.12-0.14,0.19
			c-0.07,0.11-0.15,0.23-0.21,0.36c-0.07,0.13-0.16,0.2-0.25,0.18c-0.07-0.01-0.13-0.07-0.14-0.14c-0.01-0.09,0.05-0.19,0.18-0.25
			c0.13-0.07,0.25-0.14,0.36-0.21C74.74,20.89,74.8,20.85,74.86,20.8z M74.73,13.31c0.05,0.07,0.09,0.13,0.14,0.19
			c-0.06-0.04-0.12-0.09-0.19-0.14c-0.11-0.07-0.23-0.15-0.36-0.21c-0.13-0.07-0.2-0.16-0.18-0.25c0.01-0.07,0.07-0.13,0.14-0.14
			c0.09-0.01,0.19,0.05,0.25,0.18C74.58,13.08,74.65,13.2,74.73,13.31z M78.41,11.04c0.06-0.04,0.14-0.04,0.19,0
			c0.08,0.06,0.1,0.17,0.05,0.31c-0.05,0.14-0.08,0.28-0.11,0.41c-0.02,0.08-0.03,0.16-0.04,0.23c-0.01-0.07-0.02-0.15-0.04-0.23
			c-0.03-0.13-0.06-0.27-0.11-0.41C78.32,11.21,78.34,11.1,78.41,11.04z M81.58,14.03l-2.21,2.21c-0.21-0.2-0.5-0.33-0.81-0.34
			v-3.13C79.69,12.79,80.76,13.23,81.58,14.03z M78.56,15.99c0.29,0.01,0.55,0.13,0.75,0.31c0.02,0.02,0.04,0.04,0.06,0.06
			c0.18,0.2,0.3,0.46,0.31,0.75c0,0.01,0,0.03,0,0.04c0,0.01,0,0.03,0,0.04c-0.01,0.29-0.13,0.55-0.31,0.75
			c-0.02,0.02-0.04,0.04-0.06,0.06c-0.2,0.18-0.46,0.3-0.75,0.31c-0.01,0-0.03,0-0.04,0c-0.01,0-0.03,0-0.04,0
			c-0.29-0.01-0.55-0.13-0.75-0.31c-0.02-0.02-0.04-0.04-0.06-0.06c-0.18-0.2-0.3-0.46-0.31-0.75c0-0.01,0-0.03,0-0.04
			c0-0.01,0-0.03,0-0.04c0.01-0.29,0.13-0.55,0.31-0.75c0.02-0.02,0.04-0.04,0.06-0.06c0.2-0.18,0.46-0.3,0.75-0.31
			c0.01,0,0.03,0,0.04,0C78.53,15.99,78.54,15.99,78.56,15.99z M82.89,17.11h-3.13c-0.01-0.31-0.14-0.6-0.34-0.81l2.21-2.21
			C82.44,14.9,82.88,15.97,82.89,17.11z M84.31,17.3c-0.14-0.05-0.28-0.08-0.41-0.11c-0.08-0.02-0.16-0.03-0.23-0.04
			c0.07-0.01,0.15-0.02,0.23-0.04c0.13-0.03,0.27-0.06,0.41-0.11c0.14-0.05,0.25-0.03,0.31,0.05c0.02,0.03,0.03,0.06,0.03,0.1
			c0,0.03-0.01,0.07-0.03,0.1C84.57,17.33,84.45,17.35,84.31,17.3z M81.64,20.22l-2.21-2.21c0.2-0.21,0.33-0.5,0.34-0.81h3.13
			C82.88,18.33,82.44,19.4,81.64,20.22z M78.56,21.53V18.4c0.31-0.01,0.6-0.14,0.81-0.34l2.21,2.21
			C80.76,21.08,79.69,21.52,78.56,21.53z M78.51,22.32c0.01,0.07,0.02,0.15,0.04,0.23c0.03,0.13,0.06,0.27,0.11,0.41
			c0.02,0.05,0.03,0.1,0.03,0.14c0,0.07-0.03,0.13-0.07,0.17c-0.06,0.04-0.14,0.04-0.19,0c-0.08-0.06-0.1-0.17-0.05-0.31
			c0.05-0.14,0.08-0.28,0.11-0.41C78.49,22.47,78.5,22.39,78.51,22.32z M75.45,20.28l2.21-2.21c0.21,0.2,0.5,0.33,0.81,0.34v3.13
			C77.33,21.52,76.26,21.08,75.45,20.28z M74.13,17.2h3.13c0.01,0.31,0.14,0.6,0.34,0.81l-2.21,2.21
			C74.59,19.4,74.15,18.33,74.13,17.2z M72.71,17.01c0.14,0.05,0.28,0.08,0.41,0.11c0.08,0.02,0.16,0.03,0.23,0.04
			c-0.07,0.01-0.15,0.02-0.23,0.04c-0.13,0.03-0.27,0.06-0.41,0.11c-0.14,0.05-0.25,0.03-0.31-0.05c-0.04-0.06-0.04-0.14,0-0.19
			C72.46,16.98,72.57,16.96,72.71,17.01z M75.39,14.09l2.21,2.21c-0.2,0.21-0.33,0.5-0.34,0.81h-3.13
			C74.15,15.97,74.59,14.9,75.39,14.09z M78.47,12.78v3.13c-0.31,0.01-0.6,0.14-0.81,0.34l-2.21-2.21
			C76.26,13.23,77.33,12.79,78.47,12.78z"/>
		<path class="st0" d="M78.56,16.37c-0.01,0-0.03,0-0.04,0s-0.03,0-0.04,0c-0.18,0.01-0.35,0.08-0.48,0.2
			c-0.02,0.02-0.04,0.04-0.06,0.06c-0.12,0.13-0.19,0.3-0.2,0.48c0,0.01,0,0.03,0,0.04c0,0.01,0,0.03,0,0.04
			c0.01,0.18,0.08,0.35,0.2,0.48c0.02,0.02,0.04,0.04,0.06,0.06c0.13,0.12,0.3,0.19,0.48,0.2c0.01,0,0.03,0,0.04,0s0.03,0,0.04,0
			c0.18-0.01,0.35-0.08,0.48-0.2c0.02-0.02,0.04-0.04,0.06-0.06c0.12-0.13,0.19-0.3,0.2-0.48c0-0.01,0-0.03,0-0.04
			c0-0.01,0-0.03,0-0.04c-0.01-0.18-0.08-0.35-0.2-0.48c-0.02-0.02-0.04-0.04-0.06-0.06C78.91,16.45,78.74,16.38,78.56,16.37z
			 M78.56,16.45c0.16,0.01,0.31,0.07,0.42,0.17c0.02,0.02,0.04,0.04,0.06,0.06c0.1,0.11,0.16,0.26,0.17,0.42c0,0.01,0,0.03,0,0.04
			c0,0.01,0,0.03,0,0.04c-0.01,0.16-0.07,0.31-0.17,0.42c-0.02,0.02-0.04,0.04-0.06,0.06c-0.11,0.1-0.26,0.16-0.42,0.17
			c-0.01,0-0.03,0-0.04,0c-0.01,0-0.03,0-0.04,0c-0.16-0.01-0.31-0.07-0.42-0.17c-0.02-0.02-0.04-0.04-0.06-0.06
			c-0.1-0.11-0.16-0.26-0.17-0.42c0-0.01,0-0.03,0-0.04c0-0.01,0-0.03,0-0.04c0.01-0.16,0.07-0.31,0.17-0.42
			c0.02-0.02,0.04-0.04,0.06-0.06c0.11-0.1,0.26-0.16,0.42-0.17c0.01,0,0.03,0,0.04,0C78.53,16.45,78.54,16.45,78.56,16.45z"/>
		<circle class="st0" cx="78.53" cy="17.14" r="3.59"/>
	</g>
</g>
</svg>
